<svg width="13" height="10" viewBox="0 0 13 10" fill="none" xmlns="http://www.w3.org/2000/svg">
<path fill-rule="evenodd" clip-rule="evenodd" d="M11.8053 0.971981C11.6802 0.846592 11.5104 0.776123 11.3333 0.776123C11.1562 0.776123 10.9864 0.846592 10.8613 0.971981L4.22265 7.61331L1.13865 4.52798C0.877976 4.2673 0.455333 4.2673 0.194654 4.52798C-0.0660241 4.78866 -0.0660241 5.2113 0.194654 5.47198L3.75065 9.02798C3.87573 9.15337 4.04555 9.22384 4.22265 9.22384C4.39976 9.22384 4.56958 9.15337 4.69465 9.02798L11.8053 1.91598C11.9307 1.79091 12.0012 1.62108 12.0012 1.44398C12.0012 1.26688 11.9307 1.09705 11.8053 0.971981Z" fill="#3333FF"/>
</svg>
